<?xml version="1.0" encoding="utf-8"?>
<svg xmlns="http://www.w3.org/2000/svg" height="456" viewBox="0 0 456 456" width="456">
  <path d="M43.2 43.2L408 43.2L408 408L43.2 408L43.2 43.2Z" fill="none" />
  <path d="M225.6 88.8L58.4 180L119.2 213.136L119.2 304.336L225.6 362.4L332 304.336L332 213.136L362.4 196.568L362.4 301.6L392.8 301.6L392.8 180L225.6 88.8ZM329.264 180L225.6 236.544L121.936 180L225.6 123.456L329.264 180ZM301.6 286.248L225.6 327.744L149.6 286.248L149.6 229.704L225.6 271.2L301.6 229.704L301.6 286.248L301.6 286.248Z" fill="#FFFFFF" />
</svg>